# xmcd
#
# Track frame offsets:
#	150
#	12453
#	25221
#	36144
#	50359
#	61987
#	72587
#	85572
#	97387
#	112600
#
# Disc length: 1676 seconds
#
# Revision: 0
# Processed by: cddbd v1.5.2PL0 Copyright (c) Steve Scherf et al.
# Submitted via: EZCDAudioConverter 3.1.0.1
#
DISCID=7d068a0a
DTITLE=Mel Tillis - Sawmill
DYEAR=1973
DGENRE=Country
TTITLE0=Sawmill
TTITLE1=Leona
TTITLE2=Bobbi
TTITLE3=Borrowed Angel
TTITLE4=Remembering
TTITLE5=Live In My Heart
TTITLE6=Cheap Imitation
TTITLE7=If I Throw Away My Pride
TTITLE8=Take A Look At Me
TTITLE9=Thank You For Being You
EXTD=
EXTT0=
EXTT1=
EXTT2=
EXTT3=
EXTT4=
EXTT5=
EXTT6=
EXTT7=
EXTT8=
EXTT9=
PLAYORDER=
